<svg viewBox="0 0 230 105" preserveAspectRatio="xMidYMid meet" class="css-1y5supu" id="ddcgagag"><defs id="SvgjsDefs1048"></defs><g id="SvgjsG1049" featurekey="root" fill="#c3f3fc"></g><g id="SvgjsG1051" featurekey="text1" fill="#716FEC" transform="matrix(4.664727841297066,0,0,4.664727841297066,15,-31.555405282765058)"><path d="M0.21484 9.980375 l3.125 -0.0000095367 c0.34505 1.2565 1.0547 3.7728 2.1289 7.5488 l1.2305 0 c0.032549 0 0.16602 -0.45247 0.40039 -1.3574 c0.52083 -1.7773 1.1035 -3.8411 1.748 -6.1914 l2.8906 0 l0 9.082 l0.16602 0 l0 1.6602 l-0.87891 0 l0 0.30273 l0.87891 0 l0 2.959 l-2.4609 0 l0 -1.084 l0.30273 0 l0 -3.3594 l-0.51758 0 l0 -1.6797 l-0.3125 0 l-0.019531 0.087891 l-0.26367 0 l0 2.3926 l-0.84961 0 l0 1.1133 l-0.73242 0 l0 1.8945 l-1.7285 0 l0 -1.2109 l-1.0645 0 l0 -1.6602 l-0.63477 0 l0 -1.7188 l-0.36133 0 c-0.013018 -0.097656 -0.091143 -0.39714 -0.23438 -0.89844 l2.4805 0 l-0.068359 -0.33203 l-2.4805 0 l0.068359 0.33203 l-0.33203 0 l0 2.168 l0.16602 0 l0 2.3926 l-0.61523 0 l0 0.42969 l0.61523 0 l0 0.63477 l-2.2266 0 l0 -2.8809 l-0.41992 0 l0 -10.625 z M2.6758 16.533175 l0 0.16602 c0 0.14323 0.0065136 0.41992 0.019531 0.83008 l0.23438 0 c-0.15625 -0.63151 -0.23438 -0.96354 -0.23438 -0.99609 l-0.019531 0 z M9.2285 16.552775 l-0.21484 0.97656 l0.21484 0 c0.013018 -0.40364 0.019531 -0.69661 0.019531 -0.87891 l0 -0.097656 l-0.019531 0 z M1.8945 17.529275 l0 0.33203 l0.78125 0 l0 -0.33203 l-0.78125 0 z M6.7383 17.529275 l-0.068359 0.33203 l2.2266 0 c0.065107 -0.17578 0.097656 -0.28646 0.097656 -0.33203 l-2.2559 0 z M9.248 17.529275 l0 0.33203 l1.709 0 l0 -0.33203 l-1.709 0 z M5.5566 17.861375 c0.11067 0.5013 0.18229 0.75195 0.21484 0.75195 l0.2832 0 l0 1.25 l0.44922 0 l0 -1.9336 l0.11719 0 l0 -0.068359 l-1.0645 0 z M11.904 20.722675 l1.416 0 l0 0.30273 l-1.416 0 l0 -0.30273 z M12.041 21.142575 l0.11719 -0.0000095367 l0 0.21484 l0.19531 0 l0 -0.16602 c0 -0.032549 0.016279 -0.048828 0.048828 -0.048828 l0.039063 0 c0.032549 0.0065136 0.048828 0.022793 0.048828 0.048838 l0 0.44922 c0 0.032549 -0.016279 0.048828 -0.048828 0.048828 l-0.087891 0 l0 -0.21484 l-0.19531 0 l0 0.21484 l-0.11719 0 l0 -0.54688 z M12.041 21.855475 l0.33203 -0.0000095367 c0.032549 0.0065136 0.048828 0.022793 0.048828 0.048838 l0 0.068359 l-0.26367 0 l0 0.097656 l0.21484 0 l0 0.11719 l-0.21484 0 l0 0.21484 l-0.11719 0 l0 -0.54688 z M12.07 22.568375 l0.33202 0 c0.026045 0 0.039063 0.013018 0.039063 0.039063 l0 0.048828 l-0.25391 0.33203 l0.25391 0 l0 0.11719 l-0.40039 0 c-0.032549 0 -0.048828 -0.022783 -0.048828 -0.068359 c0.05208 -0.078125 0.13997 -0.19531 0.26367 -0.35156 l-0.23438 0 l0 -0.078125 c0.0065136 -0.026045 0.022793 -0.039063 0.048838 -0.039063 z M12.041 23.271455 l0.11719 -0.0000095367 l0 0.3125 l0.029297 0.11719 l0.11719 0 c0.032549 0 0.048828 -0.016279 0.048828 -0.048828 l0 -0.33203 c0 -0.032549 0.016279 -0.048828 0.048828 -0.048828 l0.039063 0 c0.032549 0.0065136 0.048828 0.022793 0.048828 0.048838 l0 0.2832 c0 0.14323 -0.071611 0.21484 -0.21484 0.21484 l-0.039063 0 c-0.091143 0 -0.15625 -0.039063 -0.19531 -0.11719 l0 -0.42969 z M0 23.603475 l2.5098 0 l0 0.21484 l-2.5098 0 l0 -0.21484 z M18.6132875 10.009375 c2.0052 0 3.3235 0.69988 3.9551 2.0996 c0.35808 0.68359 0.53711 2.002 0.53711 3.9551 l0 0.068359 l-1.0352 0 l0 0.46875 l1.0352 0 l0 5.0488 l-0.68359 0 l0 1.8164 l-1.3574 0 l0 0.51758 l-4.7461 0 l0 -0.51758 l-0.57617 0 l0 -1.8164 l-1.2207 0 l0 -1.4258 l0.72266 0 l0 -0.75195 l-0.72266 0 l0 0.75195 l-1.7285 0 l0 -0.75195 l1.3086 0 c-0.013018 -1.1394 -0.019531 -2.0117 -0.019531 -2.6172 l0 -1.1914 c0 -2.2136 0.37435 -3.6946 1.123 -4.4434 c0.68359 -0.80729 1.8196 -1.2109 3.4082 -1.2109 z M16.9042875 14.824175 l0.029307 -0.0000095367 l-0.029297 0.039063 l0 1.2695 l-1.0449 0 l0 0.46875 l1.0449 0 c-0.013018 2.0117 -0.019531 3.5286 -0.019531 4.5508 l0 0.49805 l2.334 0 l0 -0.77148 l1.0742 0 l0 -0.029297 c0 -0.95052 -0.0065136 -2.2754 -0.019531 -3.9746 c0 -0.071611 0.0065136 -0.25064 0.019531 -0.5371 c0 -1.8359 -0.10742 -2.9655 -0.32227 -3.3887 c-0.22136 -0.40364 -0.62826 -0.60547 -1.2207 -0.60547 l-0.3418 0 c-0.70964 0 -1.1491 0.3125 -1.3184 0.9375 c-0.078125 0.30599 -0.13997 0.82031 -0.18555 1.543 z M23.105487500000002 16.132775 l1.6797 0 l0 0.46875 l-1.6797 0 l0 -0.46875 z M28.906290625 10.029375 c1.5495 0 2.5879 0.49806 3.1152 1.4941 c0.36458 0.75521 0.54688 1.4941 0.54688 2.2168 l-0.019531 0 c-1.0612 0.091143 -1.7871 0.13672 -2.1777 0.13672 c0 -0.51433 -0.1595 -0.94727 -0.47852 -1.2988 c-0.29948 -0.16927 -0.57617 -0.25391 -0.83008 -0.25391 l-0.39063 0 c-0.66406 0 -1.0677 0.25716 -1.2109 0.77148 c-0.032549 0.14974 -0.048828 0.26692 -0.048828 0.35156 l0 0.20508 c0 0.72917 0.38411 1.2565 1.1523 1.582 c0.065107 0.058594 0.59896 0.30273 1.6016 0.73242 c0.53386 0.24739 1.0286 0.55338 1.4844 0.91796 l0 0.019531 l-2.4512 0 l0 0.27344 l3.2324 0 l0 0.39063 l0.41016 0 l0 4.2383 l-0.80078 0 l0 2.1777 l-6.2109 0 l0 -2.1777 l-1.4648 0 l0 -1.4648 l0.83008 0 l0 -0.50781 l-0.83008 0 l0 -0.3418 l2.8418 0 l0 2.3145 l2.9102 0 l0 -3.4863 l-2.1777 0 l0 -1.1426 l-2.7051 0 l0 -0.27344 l1.3086 0 l0 -0.019531 c-1.1458 -0.76172 -1.7188 -1.8392 -1.7188 -3.2324 l0 -0.18555 c0 -1.1653 0.35808 -2.0508 1.0742 -2.6563 c0.65104 -0.52083 1.6536 -0.78125 3.0078 -0.78125 z M32.431690625 16.904275 l0.98633 0 l0 0.27344 l-0.98633 0 l0 -0.27344 z M23.427700625 19.833975 l0.9375 0 l0 0.50781 l-0.9375 0 l0 -0.50781 z M38.320353125 10.029375 c1.5495 0 2.5879 0.49806 3.1152 1.4941 c0.36458 0.75521 0.54688 1.4941 0.54688 2.2168 l-0.019531 0 c-1.0612 0.091143 -1.7871 0.13672 -2.1777 0.13672 c0 -0.51433 -0.1595 -0.94727 -0.47852 -1.2988 c-0.29948 -0.16927 -0.57617 -0.25391 -0.83008 -0.25391 l-0.39063 0 c-0.66406 0 -1.0677 0.25716 -1.2109 0.77148 c-0.032549 0.14974 -0.048828 0.26692 -0.048828 0.35156 l0 0.20508 c0 0.72917 0.38411 1.2565 1.1523 1.582 c0.065107 0.058594 0.59896 0.30273 1.6016 0.73242 c0.53386 0.24739 1.0286 0.55338 1.4844 0.91796 l0 0.019531 l-2.4512 0 l0 0.27344 l3.2324 0 l0 0.39063 l0.41016 0 l0 4.2383 l-0.80078 0 l0 2.1777 l-6.2109 0 l0 -2.1777 l-1.4648 0 l0 -1.4648 l0.83008 0 l0 -0.50781 l-0.83008 0 l0 -0.3418 l2.8418 0 l0 2.3145 l2.9102 0 l0 -3.4863 l-2.1777 0 l0 -1.1426 l-2.7051 0 l0 -0.27344 l1.3086 0 l0 -0.019531 c-1.1458 -0.76172 -1.7188 -1.8392 -1.7188 -3.2324 l0 -0.18555 c0 -1.1653 0.35808 -2.0508 1.0742 -2.6563 c0.65104 -0.52083 1.6536 -0.78125 3.0078 -0.78125 z M41.845753125 16.904275 l0.98633 0 l0 0.27344 l-0.98633 0 l0 -0.27344 z M32.841763125 19.833975 l0.9375 0 l0 0.50781 l-0.9375 0 l0 -0.50781 z"></path></g></svg>